<?xml version="1.0" standalone="no"?>
<!DOCTYPE svg PUBLIC "-//W3C//DTD SVG 20010904//EN"
 "http://www.w3.org/TR/2001/REC-SVG-20010904/DTD/svg10.dtd">
<svg version="1.0" xmlns="http://www.w3.org/2000/svg"
 width="2000.000000pt" height="1600.000000pt" viewBox="0 0 2000.000000 1600.000000"
 preserveAspectRatio="xMidYMid meet">
<metadata>
Created by potrace 1.16, written by Peter Selinger 2001-2019
</metadata>
<g transform="translate(0.000000,1600.000000) scale(0.100000,-0.100000)"
fill="#000000" stroke="none">
<path d="M5504 12547 c3 -10 6 -21 6 -23 0 -2 6 -4 14 -4 7 0 16 -9 19 -20 3
-11 12 -20 20 -20 8 0 17 -9 20 -20 3 -11 12 -20 21 -20 9 0 16 -4 16 -10 0
-11 48 -60 59 -60 5 0 11 -9 14 -20 3 -11 12 -20 21 -20 9 0 16 -7 16 -15 0
-7 6 -18 13 -22 8 -4 16 -16 20 -25 5 -14 18 -18 56 -18 41 0 51 -4 56 -20 5
-15 15 -20 41 -20 24 0 34 -5 34 -15 0 -9 9 -15 25 -15 14 0 33 -9 42 -20 10
-11 30 -20 45 -20 17 0 31 -7 38 -20 7 -13 21 -20 41 -20 22 0 32 -5 36 -20 3
-11 9 -20 13 -20 4 0 46 -38 94 -85 l86 -84 0 -56 c0 -55 0 -55 -30 -55 -18 0
-33 6 -36 15 -4 8 -10 15 -15 15 -5 0 -4 -9 3 -20 8 -12 24 -20 41 -20 20 0
30 -6 34 -19 3 -11 13 -21 24 -24 10 -3 19 -12 19 -21 0 -9 6 -16 13 -16 19 0
55 -43 63 -76 4 -16 13 -38 20 -49 8 -11 14 -29 14 -41 0 -12 7 -24 15 -28 10
-4 15 -19 15 -49 0 -31 6 -49 20 -62 11 -10 20 -28 20 -40 0 -11 16 -37 35
-55 30 -29 35 -41 33 -70 -3 -30 -7 -35 -30 -38 -35 -4 -37 -22 -3 -22 22 0
75 -41 75 -58 0 -4 9 -13 20 -20 15 -9 20 -23 20 -58 0 -34 5 -50 21 -63 20
-16 20 -18 4 -31 -15 -13 -19 -12 -35 7 -10 12 -20 19 -24 16 -16 -17 -1 -47
49 -96 31 -30 55 -62 55 -74 0 -11 9 -28 20 -38 11 -10 20 -28 20 -39 0 -12 9
-29 20 -39 15 -12 20 -29 20 -62 0 -31 5 -47 15 -51 10 -4 15 -20 15 -49 0
-29 6 -47 19 -59 11 -10 21 -30 23 -44 2 -14 9 -27 16 -30 22 -7 15 81 -8 101
-14 12 -20 29 -20 62 0 34 -5 47 -20 55 -15 8 -20 21 -20 53 0 30 -6 48 -20
60 -11 9 -20 28 -20 41 0 13 -7 26 -15 30 -10 4 -15 20 -15 51 0 34 -5 48 -20
57 -15 10 -20 24 -20 56 0 32 -6 48 -21 60 -13 11 -18 23 -14 35 10 23 31 21
49 -5 16 -22 16 -22 16 10 0 22 -5 32 -15 32 -8 0 -15 6 -15 14 0 8 -9 18 -20
21 -11 3 -20 12 -20 18 0 7 -9 18 -20 25 -11 7 -20 23 -20 36 0 13 -7 29 -15
36 -8 7 -15 22 -15 35 0 12 -9 30 -20 40 -14 13 -20 31 -20 61 0 33 -5 46 -20
54 -16 8 -20 21 -20 58 0 36 -5 50 -20 60 -11 7 -20 22 -20 35 0 12 -9 30 -20
40 -15 12 -20 29 -20 62 0 32 -4 45 -14 45 -18 0 -26 22 -26 70 0 24 -5 40
-15 44 -11 4 -15 22 -15 71 0 37 -4 65 -10 65 -5 0 -10 -13 -10 -29 0 -37 -24
-47 -50 -21 -11 11 -24 20 -29 20 -13 0 -21 26 -21 68 0 30 -5 39 -25 49 -14
6 -27 7 -31 2 -10 -16 -24 -9 -65 31 -25 24 -50 40 -64 40 -14 0 -29 9 -35 20
-7 13 -21 20 -39 20 -16 0 -31 7 -35 15 -3 8 -17 15 -31 15 -14 0 -30 9 -37
20 -8 12 -24 20 -40 20 -17 0 -33 8 -40 20 -10 15 -24 20 -60 20 -28 0 -50 5
-55 13 -4 8 -16 16 -25 20 -10 3 -18 13 -18 21 0 7 -9 16 -20 19 -11 3 -20 12
-20 21 0 9 -6 16 -12 16 -15 0 -58 43 -58 58 0 5 -9 12 -20 15 -11 3 -20 12
-20 20 0 8 -9 17 -20 20 -11 3 -20 12 -20 21 0 9 -7 16 -15 16 -7 0 -19 8 -25
18 -11 16 -11 16 -6 -1z"/>
<path d="M5430 11855 c0 -16 123 -125 141 -125 27 0 79 -52 79 -79 0 -17 -6
-21 -30 -21 -20 0 -30 5 -30 15 0 8 -4 15 -9 15 -5 0 -7 -9 -4 -20 4 -15 14
-20 38 -20 25 0 35 -5 40 -20 4 -12 15 -20 29 -20 15 0 45 -23 87 -66 35 -37
81 -84 101 -104 34 -34 38 -44 40 -97 l3 -58 -68 -3 c-56 -2 -71 -7 -92 -28
-14 -14 -25 -29 -25 -34 0 -9 -39 -34 -73 -46 -24 -9 -13 -40 29 -80 19 -17
34 -41 34 -53 0 -13 21 -43 50 -72 50 -50 50 -50 50 -22 0 19 -11 38 -35 60
-22 21 -35 42 -35 57 0 15 -8 30 -20 36 -22 12 -27 45 -7 52 6 3 42 3 80 0 48
-3 67 -8 67 -18 0 -11 17 -14 70 -14 59 0 71 -3 80 -20 7 -13 21 -20 40 -20
19 0 33 -7 40 -20 7 -13 21 -20 41 -20 22 0 32 -5 36 -20 4 -15 14 -20 39 -20
23 0 34 -5 34 -14 0 -8 9 -18 20 -21 13 -4 20 -15 20 -32 0 -15 7 -33 15 -42
78 -84 185 -188 189 -183 17 17 -3 47 -89 130 -54 52 -95 100 -95 111 0 10
-37 56 -82 101 -66 67 -83 79 -90 66 -12 -21 -84 -22 -92 -1 -4 11 -21 15 -66
15 -48 0 -64 4 -77 20 -13 15 -30 20 -71 20 -62 0 -92 13 -92 39 0 20 19 31
50 31 10 0 20 7 24 15 4 12 26 15 106 15 55 0 100 -4 100 -9 0 -10 86 -101 95
-101 14 0 3 37 -16 53 -11 10 -19 26 -17 35 3 15 19 17 115 20 104 2 113 1
123 -18 6 -11 21 -20 33 -20 14 0 39 -17 62 -40 21 -22 48 -40 59 -40 11 0 44
-25 73 -55 36 -37 62 -55 78 -55 14 0 25 2 25 5 0 15 -128 125 -146 125 -26 0
-48 24 -40 45 4 11 20 15 56 15 32 0 49 4 45 10 -3 6 -35 10 -71 10 -48 0 -66
4 -70 15 -5 12 -24 15 -85 15 -67 0 -82 3 -96 20 -10 11 -28 20 -40 20 -13 0
-28 9 -35 20 -10 15 -24 20 -57 20 -42 0 -48 4 -118 75 -44 44 -82 75 -94 75
-27 0 -224 197 -233 233 -3 15 -13 27 -21 27 -8 0 -15 7 -15 16 0 14 -1 14
-16 0 -8 -9 -19 -16 -23 -16 -11 0 -71 55 -71 66 0 17 -48 54 -69 54 -12 0
-21 -2 -21 -5z"/>
<path d="M5085 11789 c-5 -24 0 -34 31 -61 20 -18 47 -39 60 -46 13 -7 24 -17
24 -22 0 -6 6 -10 14 -10 14 0 26 -21 26 -46 0 -8 45 -60 100 -115 75 -75 100
-95 100 -79 0 12 -36 56 -95 115 -64 63 -95 102 -95 117 0 15 -27 47 -80 98
l-79 76 -6 -27z"/>
<path d="M7379 11410 c0 -195 0 -387 1 -427 1 -61 -2 -75 -19 -90 -19 -16 -21
-29 -21 -139 0 -102 -3 -123 -16 -128 -22 -9 -34 1 -34 29 0 33 -193 225 -226
225 -13 0 -24 -2 -24 -5 0 -3 52 -56 115 -119 66 -65 115 -121 115 -132 0 -11
16 -34 35 -51 30 -28 35 -39 35 -77 0 -35 5 -48 20 -56 18 -9 20 -21 20 -94 0
-62 4 -87 15 -96 11 -9 15 -33 15 -90 0 -64 3 -80 20 -95 17 -16 20 -31 20
-116 0 -88 2 -99 20 -109 15 -8 20 -21 20 -54 0 -30 -6 -48 -20 -61 -11 -10
-20 -28 -20 -41 0 -13 9 -28 20 -34 15 -8 20 -21 20 -52 0 -27 7 -49 19 -62
18 -20 19 -33 13 -216 -6 -164 -9 -195 -22 -195 -11 0 -16 13 -18 46 -2 31
-10 53 -23 64 -13 13 -19 31 -19 61 0 33 -5 46 -20 54 -15 8 -20 21 -20 54 0
39 -5 47 -55 94 -50 47 -55 56 -55 95 0 31 -5 45 -20 55 -15 9 -20 23 -20 56
0 30 -6 48 -20 61 -11 10 -20 29 -20 42 0 29 -3 29 -34 -1 -31 -28 -33 -56 -6
-81 11 -10 20 -28 20 -40 0 -12 15 -34 35 -51 35 -29 35 -30 35 -110 0 -68 3
-84 20 -99 14 -13 20 -31 20 -61 0 -33 5 -46 20 -54 15 -8 20 -21 20 -54 0
-27 6 -48 15 -56 19 -16 19 -40 1 -40 -8 0 -21 -3 -30 -6 -8 -3 -22 3 -33 15
-9 12 -27 21 -38 21 -11 0 -45 25 -75 55 -30 30 -63 55 -74 55 -25 0 -156 133
-156 159 0 21 -37 64 -64 74 -9 4 -16 11 -16 17 0 5 -11 10 -24 10 -32 0 -316
279 -316 310 0 11 -18 38 -40 60 -22 22 -40 48 -40 59 0 10 -9 21 -20 24 -11
3 -20 1 -20 -4 0 -5 7 -9 15 -9 22 0 19 -47 -4 -61 -20 -13 -18 -44 5 -53 8
-3 14 -10 14 -15 0 -19 92 -101 113 -101 29 -1 81 -54 74 -75 -9 -21 -85 -21
-93 0 -4 10 -20 15 -48 15 -36 0 -47 6 -77 38 -19 21 -43 41 -52 45 -9 3 -17
10 -17 16 0 5 -9 11 -20 14 -11 3 -20 1 -20 -4 0 -5 7 -9 15 -9 8 0 15 -7 15
-15 0 -9 6 -18 14 -21 37 -14 17 -64 -26 -64 -11 0 -26 -6 -32 -14 -7 -8 -41
-16 -88 -20 -71 -6 -77 -5 -83 14 -5 17 -15 20 -56 20 -33 0 -51 5 -55 14 -3
8 -21 17 -40 20 -20 4 -34 13 -34 21 0 10 -10 15 -27 15 -32 0 -48 9 -56 30
-4 10 -6 8 -6 -6 -1 -14 20 -44 55 -78 45 -47 53 -60 44 -72 -7 -8 -23 -14
-36 -14 -17 0 -24 -6 -24 -19 0 -11 -8 -22 -17 -24 -14 -4 -14 -5 3 -6 14 -1
24 6 27 19 4 14 14 20 32 20 15 0 34 8 41 18 9 13 27 17 69 17 42 0 60 -4 69
-17 11 -15 29 -18 109 -18 87 0 97 -2 111 -22 14 -19 16 -19 22 -5 5 13 19 17
63 17 52 0 58 -3 85 -35 16 -19 37 -35 47 -35 28 0 49 -11 49 -26 0 -9 11 -14
30 -14 19 0 34 -7 42 -20 7 -11 24 -20 37 -20 14 0 37 -14 57 -35 18 -19 42
-35 53 -35 12 0 26 -9 33 -20 7 -11 23 -20 36 -20 12 0 30 -9 39 -20 10 -11
28 -20 40 -20 13 0 39 -17 62 -40 22 -22 48 -40 59 -40 11 0 25 -7 32 -15 7
-8 23 -15 36 -15 13 0 29 -9 36 -20 8 -12 24 -20 39 -20 18 0 36 -12 60 -40
24 -28 42 -40 60 -40 19 0 34 -11 53 -39 15 -22 34 -42 42 -45 9 -3 14 -21 14
-49 0 -31 6 -49 20 -62 14 -13 20 -31 20 -60 0 -29 5 -45 15 -49 8 -3 15 -16
15 -29 0 -13 9 -32 20 -42 14 -13 20 -31 20 -61 0 -33 5 -46 20 -54 15 -8 20
-21 20 -54 0 -30 6 -48 20 -61 15 -14 17 -21 9 -32 -24 -28 -54 -13 -129 62
-41 42 -83 75 -94 75 -11 0 -64 46 -128 110 -60 61 -113 110 -118 110 -6 0
-10 -9 -10 -21 0 -25 193 -219 218 -219 23 0 86 -65 78 -79 -5 -7 -63 -11
-166 -11 -149 0 -160 -1 -170 -20 -8 -16 -21 -20 -60 -20 -28 0 -50 -4 -50
-10 0 -6 30 -10 69 -10 52 0 70 4 75 15 4 12 31 15 151 15 120 0 147 -3 151
-15 5 -11 22 -15 68 -15 60 0 62 -1 109 -49 l47 -49 0 -101 c0 -90 2 -101 20
-111 18 -9 20 -21 20 -95 0 -74 2 -86 20 -95 15 -8 20 -21 20 -54 0 -27 6 -48
15 -56 10 -8 15 -31 15 -71 0 -47 4 -63 20 -76 14 -12 20 -30 20 -59 0 -28 6
-46 20 -59 14 -12 20 -31 20 -59 0 -31 5 -44 21 -54 16 -11 18 -16 9 -28 -17
-20 -47 -17 -67 6 -10 11 -27 20 -39 20 -11 0 -29 9 -39 20 -13 14 -31 20 -61
20 -33 0 -46 5 -54 20 -7 13 -21 20 -39 20 -16 0 -31 7 -35 15 -4 11 -22 15
-70 15 -55 0 -67 3 -76 20 -9 17 -21 20 -74 20 -50 0 -67 4 -81 20 -28 30
-127 29 -148 -2 l-15 -23 -24 23 c-13 12 -33 22 -44 22 -10 0 -34 16 -51 35
-18 19 -42 35 -54 35 -12 0 -43 23 -74 55 -31 31 -63 55 -74 55 -13 0 -70 50
-154 135 -76 76 -142 135 -152 135 -25 0 -75 49 -75 73 0 28 -119 147 -146
147 -25 0 -49 24 -39 40 4 6 124 10 355 10 339 0 350 1 360 20 7 13 21 20 40
20 17 0 30 5 30 10 0 6 -21 10 -48 10 -35 0 -52 -5 -65 -20 -15 -18 -29 -20
-132 -20 -104 0 -116 2 -127 20 -11 18 -24 20 -115 20 -92 0 -104 2 -115 20
-11 16 -24 20 -74 20 -48 0 -65 4 -79 20 -13 14 -31 20 -62 20 -30 0 -45 5
-49 15 -5 11 -22 15 -70 15 -58 0 -66 3 -87 27 -12 15 -34 39 -49 52 -33 30
-37 61 -8 61 11 0 20 6 20 13 0 6 12 23 25 36 14 13 24 26 22 28 -3 2 -23 -14
-45 -37 -39 -37 -43 -39 -69 -28 -15 7 -34 20 -40 28 -12 13 -15 13 -27 -2
-19 -25 -27 -23 -63 17 -18 19 -42 35 -53 35 -22 0 -111 82 -123 113 -10 27
-32 14 -30 -17 2 -31 84 -116 111 -116 17 0 82 -54 82 -69 0 -32 -63 -41 -82
-11 -8 12 -24 20 -40 20 -17 0 -31 8 -38 20 -7 13 -21 20 -40 20 -19 0 -33 7
-40 20 -6 11 -20 20 -31 20 -19 0 -19 -1 3 -30 15 -21 30 -30 50 -30 16 0 31
-7 34 -15 4 -8 17 -15 30 -15 13 0 32 -9 41 -20 12 -14 30 -20 60 -20 32 0 45
-5 53 -20 7 -13 21 -20 41 -20 18 0 32 -6 34 -15 15 -49 15 -49 27 -37 16 16
45 15 51 -1 6 -17 -2 -30 -28 -45 -18 -10 -17 -11 11 -12 17 0 37 7 44 15 7 8
16 15 21 15 14 0 94 -92 94 -108 0 -24 -22 -25 -42 -3 -14 17 -29 21 -84 21
-69 0 -99 16 -99 53 0 21 -26 22 -34 2 -3 -9 -19 -15 -41 -15 -22 0 -38 6 -41
15 -4 10 -20 15 -53 15 -36 -1 -42 -3 -28 -11 10 -6 17 -22 17 -40 0 -16 6
-32 14 -35 8 -3 17 -16 20 -30 7 -27 33 -32 43 -8 3 9 16 27 28 40 20 21 24
22 35 9 9 -11 34 -15 101 -15 78 0 90 -2 99 -20 9 -17 21 -20 75 -20 53 0 66
-3 75 -19 5 -11 22 -21 37 -23 22 -2 29 -9 31 -31 2 -18 27 -51 78 -100 54
-54 74 -81 74 -100 0 -36 -20 -45 -41 -19 -9 12 -27 22 -39 22 -13 0 -37 15
-56 35 -30 32 -37 35 -92 35 -46 0 -63 4 -77 20 -10 11 -28 20 -40 20 -12 0
-30 9 -40 20 -10 11 -28 20 -39 20 -12 0 -34 15 -50 35 -23 27 -37 35 -63 35
-36 0 -44 -15 -13 -25 11 -3 20 -15 20 -25 0 -9 -9 -20 -20 -23 -41 -11 -20
-27 35 -27 44 0 56 -4 65 -20 8 -15 21 -20 54 -20 30 0 48 -6 61 -20 10 -11
27 -20 38 -20 11 0 51 -32 92 -75 50 -51 81 -75 97 -75 13 0 29 -9 36 -20 7
-11 22 -20 35 -20 13 0 38 -15 57 -35 19 -20 44 -35 57 -35 13 0 28 -9 35 -20
8 -12 24 -20 40 -20 17 0 31 -8 38 -20 6 -11 21 -20 33 -20 13 0 38 -15 57
-35 19 -19 44 -35 56 -35 11 0 29 -9 39 -20 10 -11 28 -20 39 -20 12 0 29 -9
39 -20 9 -11 27 -20 40 -20 15 0 35 -13 53 -35 20 -24 37 -35 56 -35 17 0 31
-7 38 -19 5 -11 22 -21 37 -23 21 -2 29 -9 31 -28 2 -14 15 -37 30 -52 22 -24
33 -28 84 -28 46 0 62 -4 75 -20 15 -17 30 -20 100 -20 72 0 84 -2 93 -20 8
-15 21 -20 54 -20 30 0 48 -6 61 -20 13 -14 31 -20 60 -20 29 0 45 -5 49 -15
3 -8 16 -15 29 -15 13 0 32 -9 42 -20 10 -11 28 -20 40 -20 11 0 38 -18 60
-40 21 -22 47 -40 58 -40 10 0 71 -52 138 -119 l119 -118 0 -77 0 -77 86 -85
c47 -46 95 -84 105 -84 27 0 299 -276 299 -304 0 -12 16 -35 40 -55 24 -20 40
-43 40 -55 0 -12 16 -37 35 -56 19 -19 35 -44 35 -55 0 -12 9 -30 20 -40 11
-10 20 -28 20 -39 0 -12 9 -29 20 -39 14 -11 20 -29 20 -56 0 -22 6 -44 15
-51 9 -8 15 -29 15 -56 0 -33 5 -46 20 -54 18 -10 20 -21 20 -113 0 -90 -2
-105 -20 -120 -20 -17 -20 -29 -20 -1011 l0 -994 86 -86 86 -86 75 0 76 0 83
84 84 83 0 1001 c0 991 0 1001 -20 1012 -20 11 -20 21 -20 696 0 599 -2 685
-15 690 -8 4 -15 19 -15 35 0 18 -7 32 -20 39 -20 10 -20 21 -20 545 0 524 0
535 -20 547 -12 8 -20 24 -20 40 0 17 -8 31 -20 38 -19 10 -20 21 -20 170 0
149 1 160 20 170 18 9 20 21 20 95 0 74 2 86 20 95 18 9 20 21 20 96 0 66 3
86 15 90 10 4 15 20 15 49 0 29 6 47 20 60 14 13 20 31 20 61 0 33 5 46 20 54
26 14 26 56 0 70 -16 8 -20 21 -20 60 0 39 4 52 20 60 15 8 20 21 20 54 0 27
6 48 15 56 9 7 15 29 15 51 0 26 7 46 20 59 13 13 20 33 20 58 0 26 7 45 20
57 11 10 20 28 20 40 0 12 9 30 20 40 11 10 20 29 20 42 0 13 7 26 15 29 8 4
15 17 15 30 0 13 9 32 20 41 11 10 20 28 20 40 0 13 9 31 20 40 14 12 20 30
20 59 0 25 6 47 15 54 9 7 15 29 15 51 0 26 7 46 20 59 11 11 20 29 20 40 0
11 9 28 20 37 14 12 20 30 20 59 0 28 6 46 20 59 14 13 20 31 20 60 0 29 5 45
15 49 10 4 15 20 15 51 0 34 5 48 20 57 12 8 20 24 20 39 0 14 9 34 20 44 19
17 20 31 20 197 0 148 2 178 14 178 8 0 18 9 21 20 3 11 13 20 21 20 8 0 14 9
14 20 0 11 7 20 15 20 8 0 15 4 15 10 0 12 -32 0 -46 -18 -6 -8 -19 -13 -30
-10 -16 3 -19 13 -22 72 -3 68 -3 68 -23 50 -34 -30 -53 -8 -57 65 -2 50 0 61
13 61 8 0 15 5 15 10 0 7 -6 7 -20 0 -11 -6 -20 -15 -20 -20 0 -12 -34 -22
-54 -14 -13 5 -16 23 -16 106 0 91 2 100 20 105 13 3 20 13 19 27 -1 18 -2 18
-6 3 -4 -15 -12 -18 -38 -15 -28 3 -35 0 -37 -17 -4 -29 -63 -34 -71 -6 -3 12
-12 21 -21 21 -12 0 -16 10 -17 38 -1 31 -2 33 -8 13 -3 -14 -2 -43 3 -66 9
-39 11 -40 43 -37 28 4 33 1 33 -16 0 -11 8 -22 20 -25 18 -5 20 -14 20 -91 0
-73 -3 -89 -20 -106 -11 -11 -20 -29 -20 -39 0 -28 -28 -53 -51 -46 -23 8 -24
-1 -4 -21 12 -12 15 -45 15 -159 0 -134 -1 -145 -20 -155 -13 -7 -20 -21 -20
-41 0 -27 -3 -30 -27 -27 -25 3 -28 7 -31 48 -2 28 -11 51 -23 63 -17 16 -19
33 -19 207 0 103 3 195 6 204 13 35 72 8 96 -44 4 -8 6 12 6 45 0 33 -2 52 -5
42 -3 -13 -12 -17 -31 -15 -26 3 -27 5 -30 77 -3 69 -4 73 -18 53 -8 -12 -21
-22 -27 -22 -9 0 -11 -13 -9 -42 3 -31 0 -45 -13 -55 -26 -18 -45 1 -45 43 0
22 6 38 19 46 10 6 17 18 14 26 -8 20 -48 62 -60 62 -6 0 -13 9 -16 21 -7 28
-41 21 -45 -9 -2 -15 2 -22 13 -22 9 0 19 -9 22 -19 3 -11 11 -22 19 -25 10
-4 14 -25 14 -75 0 -61 3 -70 20 -76 18 -6 20 -15 20 -115 0 -99 2 -108 20
-113 18 -5 20 -14 20 -96 0 -78 -3 -92 -18 -100 -23 -12 -42 3 -42 32 0 11
-20 40 -45 65 -39 39 -45 42 -45 23 0 -13 16 -37 35 -55 22 -21 35 -43 35 -59
0 -17 7 -28 20 -32 16 -5 20 -15 20 -55 0 -39 4 -52 20 -60 13 -7 20 -21 20
-41 0 -17 6 -32 15 -35 8 -4 15 -19 15 -35 0 -18 7 -32 20 -39 17 -9 20 -21
20 -80 0 -59 -3 -71 -20 -80 -16 -9 -20 -23 -22 -98 -3 -79 -5 -87 -23 -87
-17 0 -20 8 -23 49 -2 36 -9 54 -23 64 -10 7 -19 23 -19 35 0 13 -9 30 -20 40
-11 9 -20 26 -20 37 0 10 -20 40 -45 66 l-45 46 0 -29 c0 -19 11 -38 35 -60
22 -21 35 -42 35 -57 0 -15 8 -30 20 -36 12 -7 20 -21 20 -38 0 -16 8 -32 20
-40 15 -9 20 -23 20 -55 0 -30 6 -48 20 -60 18 -15 20 -29 20 -117 0 -65 4
-99 10 -95 6 3 10 35 10 71 0 48 4 66 15 70 10 4 15 20 15 49 0 29 6 47 20 60
14 13 20 31 20 60 0 51 20 74 44 50 11 -11 16 -35 16 -74 0 -40 5 -63 15 -71
8 -7 15 -18 15 -25 0 -7 -7 -15 -15 -19 -11 -4 -15 -21 -15 -66 0 -48 -4 -64
-20 -77 -11 -10 -20 -28 -20 -40 0 -13 -9 -28 -20 -35 -12 -8 -20 -24 -20 -40
0 -17 -8 -31 -20 -38 -13 -7 -20 -21 -20 -40 0 -34 -15 -47 -35 -30 -11 9 -15
34 -15 91 0 46 -4 79 -10 79 -6 0 -10 -33 -10 -80 0 -69 -3 -82 -20 -92 -18
-11 -20 -24 -20 -115 0 -92 -2 -103 -20 -113 -18 -10 -20 -21 -20 -115 0 -94
-2 -105 -20 -115 -17 -9 -20 -21 -20 -73 0 -60 -2 -63 -40 -97 -34 -30 -40
-41 -40 -76 0 -25 -6 -47 -15 -54 -9 -7 -15 -29 -15 -51 0 -27 -6 -45 -20 -56
-17 -15 -20 -30 -20 -100 0 -72 -2 -84 -20 -93 -18 -9 -20 -21 -20 -95 0 -74
-2 -86 -20 -95 -19 -10 -20 -21 -20 -188 0 -166 -1 -178 -20 -190 -19 -12 -20
-23 -20 -281 0 -149 -4 -272 -8 -275 -12 -7 -62 49 -62 71 0 28 -320 343 -348
343 -12 0 -25 7 -28 15 -4 8 -18 15 -33 15 -33 0 -51 16 -51 46 0 12 -7 27
-15 34 -8 7 -15 22 -15 34 0 13 -17 37 -40 59 -26 24 -40 45 -40 61 0 15 -8
30 -20 36 -13 7 -20 21 -20 39 0 16 -7 31 -15 35 -8 3 -15 16 -15 29 0 14 -16
39 -40 62 -22 21 -40 48 -40 60 0 11 -9 28 -20 38 -11 9 -20 28 -20 41 0 13
-7 26 -15 30 -8 3 -15 16 -15 30 0 32 -338 369 -376 374 -13 2 -30 12 -37 23
-6 10 -22 19 -35 19 -13 0 -37 13 -53 29 l-29 29 0 155 0 154 -40 34 -40 34 0
80 c0 68 -3 83 -20 98 -18 15 -20 29 -20 116 0 79 -3 100 -15 105 -12 4 -15
26 -15 104 0 86 -3 101 -20 117 -17 15 -20 31 -20 99 0 70 -3 83 -20 94 -18
11 -20 23 -20 150 0 126 -2 138 -20 150 -18 11 -20 23 -20 132 0 109 2 121 20
132 20 13 20 24 20 448 0 264 -4 441 -10 450 -6 10 -10 -107 -11 -340z m2439
-384 c2 -46 -1 -62 -12 -68 -11 -6 -16 -23 -16 -52 0 -36 -5 -47 -36 -74 -53
-47 -64 -33 -64 79 0 78 2 90 20 99 13 7 20 21 20 39 0 37 7 43 50 39 l35 -3
3 -59z m-148 -220 c0 -8 9 -18 20 -21 15 -5 20 -15 20 -43 0 -26 -6 -41 -20
-50 -17 -10 -20 -23 -20 -76 0 -77 -14 -88 -59 -45 -27 25 -31 36 -31 79 0 36
4 52 15 56 10 4 15 20 15 44 0 21 3 45 6 54 8 20 54 21 54 2z m188 -83 c2 -84
1 -93 -18 -103 -11 -6 -20 -21 -20 -34 0 -13 -9 -31 -20 -41 -14 -13 -20 -31
-20 -62 0 -30 -5 -45 -15 -49 -10 -4 -15 -20 -15 -50 0 -31 -5 -47 -19 -56
-14 -10 -21 -28 -23 -63 -2 -39 -7 -51 -22 -53 -10 -2 -22 2 -27 10 -5 7 -9
73 -9 145 0 122 2 134 20 145 16 10 20 24 20 65 0 43 3 53 20 58 14 4 20 15
20 36 0 17 6 32 15 35 8 4 15 16 15 28 0 31 50 87 75 84 18 -3 20 -12 23 -95z
m-3158 -1123 c6 -12 21 -20 36 -20 17 0 40 -15 70 -46 24 -26 44 -50 44 -55 0
-5 6 -9 14 -9 8 0 18 -9 21 -20 3 -11 12 -20 20 -20 20 0 26 -27 8 -41 -13
-11 -18 -10 -34 10 -13 15 -25 21 -38 16 -14 -4 -30 5 -59 35 -26 25 -49 40
-66 40 -16 0 -27 7 -31 20 -3 11 -13 20 -21 20 -8 0 -14 7 -14 15 0 10 -10 15
-29 15 -32 0 -56 22 -47 45 4 11 20 15 60 15 45 0 57 -4 66 -20z m974 -605 c3
-8 18 -15 33 -15 17 0 33 -8 41 -20 7 -11 22 -20 34 -20 15 0 57 -34 125 -102
98 -98 103 -105 103 -145 0 -32 5 -45 20 -53 13 -7 20 -21 20 -40 0 -19 7 -33
20 -40 13 -7 20 -21 20 -39 0 -16 7 -31 15 -35 8 -3 15 -16 15 -29 0 -14 16
-39 40 -63 22 -21 40 -49 40 -60 0 -12 10 -28 22 -36 12 -8 18 -19 14 -26 -10
-17 -36 -15 -42 3 -4 8 -17 15 -30 15 -13 0 -32 9 -41 20 -12 14 -30 20 -60
20 -32 0 -46 5 -55 20 -10 15 -24 20 -60 20 -37 0 -50 4 -58 20 -8 15 -21 20
-52 20 -59 0 -98 38 -98 95 0 28 -6 46 -20 58 -17 14 -20 29 -20 97 0 62 -3
82 -15 86 -12 5 -15 25 -15 90 0 73 -2 85 -20 94 -20 10 -28 58 -13 73 11 12
31 8 37 -8z m-1582 -515 c10 -15 24 -20 54 -20 28 0 47 -6 59 -20 14 -15 31
-20 74 -20 68 0 91 -12 75 -37 -10 -15 -28 -18 -130 -20 l-119 -2 -49 55 c-40
45 -46 57 -36 69 18 21 58 18 72 -5z m1882 -235 c4 -10 20 -15 51 -15 34 0 48
-5 57 -20 8 -12 24 -20 40 -20 17 0 31 -8 38 -20 6 -12 21 -20 35 -20 18 0 53
-29 129 -105 l105 -105 -6 -52 c-5 -49 -3 -55 26 -85 17 -18 40 -33 51 -33 27
0 300 -273 300 -300 0 -11 16 -35 35 -53 19 -17 35 -41 35 -53 0 -11 9 -29 20
-39 11 -10 20 -28 20 -40 0 -12 9 -30 20 -40 14 -12 20 -31 20 -59 0 -30 5
-44 20 -54 17 -10 20 -23 20 -91 0 -65 -3 -81 -20 -96 -18 -17 -20 -33 -22
-249 -3 -211 -5 -231 -20 -234 -13 -3 -18 3 -18 22 0 19 -41 67 -179 206 -111
111 -186 180 -198 180 -11 0 -44 25 -74 55 -31 32 -63 55 -75 55 -11 0 -29 9
-38 19 -10 11 -30 21 -45 23 -20 2 -27 9 -29 29 -2 15 -12 35 -23 45 -10 9
-19 28 -19 41 0 13 -7 26 -15 29 -10 4 -15 20 -15 50 0 32 -6 49 -20 61 -11
10 -20 27 -20 39 0 11 -9 29 -20 39 -14 13 -20 31 -20 59 0 29 -6 47 -20 59
-14 11 -20 29 -20 56 0 22 -6 44 -15 51 -9 8 -15 29 -15 56 0 33 -5 46 -20 54
-15 8 -20 21 -20 54 0 30 -6 48 -20 61 -16 14 -20 31 -20 81 0 53 -3 65 -20
74 -18 9 -20 21 -20 95 0 74 -2 86 -20 95 -13 7 -20 21 -20 39 0 16 -7 31 -15
35 -8 3 -15 12 -15 21 0 21 105 22 114 0z"/>
<path d="M8737 11570 c-4 -15 -14 -20 -39 -21 -18 -1 -25 -3 -15 -6 9 -2 17
-11 17 -18 0 -8 9 -17 21 -20 15 -5 19 -14 17 -33 -2 -22 -9 -28 -35 -30 -25
-2 -33 1 -33 12 0 9 -5 16 -10 16 -7 0 -7 -6 0 -20 7 -13 21 -20 41 -20 16 0
32 -6 35 -14 3 -8 21 -17 40 -21 34 -6 35 -8 33 -43 -4 -69 -2 -72 37 -72 27
0 37 -5 41 -20 3 -11 10 -20 15 -20 12 0 58 -42 58 -52 0 -5 9 -17 20 -28 14
-14 20 -33 20 -64 0 -30 5 -46 15 -50 9 -3 15 -18 15 -36 0 -16 5 -30 10 -30
16 0 12 80 -4 86 -39 15 -16 64 29 64 l24 0 -24 24 c-14 14 -39 26 -57 28
l-33 3 -3 64 c-2 51 -7 68 -23 78 -10 8 -19 24 -20 36 0 12 -3 16 -6 10 -8
-21 -54 -16 -60 7 -3 11 -14 20 -24 20 -15 0 -19 7 -19 39 0 30 -4 40 -20 44
-17 4 -20 14 -20 56 0 43 -3 51 -19 51 -10 0 -21 -9 -24 -20z"/>
<path d="M10000 11483 c-8 -3 -25 -14 -37 -25 -16 -15 -32 -19 -57 -16 -30 3
-36 1 -36 -15 0 -10 -9 -21 -20 -24 -13 -3 -20 -13 -19 -27 1 -17 2 -17 6 -3
3 11 14 17 33 17 32 0 40 -18 40 -97 0 -51 0 -52 33 -55 l32 -3 6 -70 c3 -38
6 -62 7 -52 1 9 8 17 16 17 8 0 18 9 21 20 3 11 12 20 20 20 7 0 15 9 18 20 4
15 0 20 -13 20 -22 0 -30 19 -30 71 0 21 -5 39 -10 39 -6 0 -14 10 -19 22 -6
16 -16 22 -42 22 -31 1 -34 4 -37 35 -3 33 -3 33 33 29 31 -3 36 -1 41 19 4
13 12 23 20 23 8 0 14 5 14 10 0 6 -1 10 -2 9 -2 0 -10 -3 -18 -6z"/>
<path d="M9070 10911 c0 -29 6 -42 23 -54 18 -12 20 -19 11 -34 -6 -10 -26
-20 -45 -23 -31 -5 -32 -7 -11 -14 12 -4 22 -13 22 -19 0 -7 9 -18 20 -25 11
-7 20 -22 20 -35 0 -13 15 -36 35 -54 23 -21 35 -42 35 -58 0 -14 7 -28 15
-31 8 -3 17 -14 20 -25 9 -28 25 -23 25 9 0 16 -8 32 -20 40 -11 7 -20 22 -20
35 0 12 -9 30 -20 40 -14 12 -20 29 -20 61 0 30 -5 46 -15 50 -10 4 -15 20
-15 50 0 35 -5 48 -20 56 -13 7 -20 21 -20 40 0 17 -4 30 -10 30 -5 0 -10 -17
-10 -39z"/>
<path d="M5941 10708 c-12 -32 -4 -45 39 -65 22 -10 41 -27 44 -40 3 -11 27
-41 52 -65 61 -58 70 -76 49 -97 -15 -15 -18 -14 -37 9 -20 24 -24 25 -119 22
-90 -3 -99 -1 -109 18 -9 17 -20 20 -84 20 -60 0 -76 -3 -91 -20 -14 -16 -31
-20 -81 -20 -35 0 -66 -4 -69 -10 -4 -6 26 -10 83 -10 71 0 91 3 96 15 4 11
21 15 60 15 39 0 55 -4 60 -15 4 -12 26 -15 106 -15 l101 0 17 -30 c19 -33 29
-36 67 -18 23 10 29 9 51 -15 14 -15 29 -27 35 -27 6 0 9 -10 7 -22 -2 -17
-12 -25 -38 -29 -19 -4 -27 -7 -17 -8 9 0 17 -7 17 -15 0 -7 9 -16 20 -19 11
-3 20 -12 20 -20 0 -8 9 -17 20 -20 15 -4 20 -14 20 -41 0 -22 5 -36 13 -36
15 0 57 -44 57 -59 0 -6 3 -11 8 -11 4 0 6 18 4 39 -3 28 -9 41 -23 44 -14 4
-19 14 -19 41 0 26 -4 36 -15 36 -24 0 -31 31 -10 46 27 20 59 17 80 -6 15
-17 65 -29 65 -16 0 15 -51 56 -69 56 -24 0 -175 144 -199 190 -11 21 -11 26
4 37 10 7 30 13 46 13 15 0 28 5 28 10 0 14 -93 13 -107 -1 -15 -15 -63 28
-63 56 0 24 -73 105 -96 105 -8 0 -18 -10 -23 -22z"/>
<path d="M5598 10693 c-29 -7 -20 -21 15 -25 24 -2 32 -8 32 -23 0 -15 -8 -21
-30 -23 -16 -2 -35 -12 -43 -23 -10 -14 -25 -19 -58 -19 -24 0 -44 -4 -44 -10
0 -6 26 -10 58 -10 46 0 60 4 70 20 11 18 23 20 117 20 90 0 106 -3 117 -18
18 -27 151 -38 146 -13 -2 9 -15 17 -30 19 -15 2 -32 10 -38 18 -8 8 -30 14
-56 14 -26 0 -49 6 -59 16 -9 9 -36 19 -60 22 -25 2 -51 13 -61 23 -16 18 -39
22 -76 12z"/>
<path d="M6515 10652 c-16 -16 3 -46 71 -115 50 -50 74 -82 70 -92 -8 -22 -37
-18 -43 5 -4 14 -14 20 -34 20 -18 0 -34 8 -41 20 -10 15 -24 20 -61 20 -33 0
-49 5 -53 15 -5 12 -25 15 -91 15 -53 0 -82 -4 -78 -10 3 -5 35 -10 70 -10 54
0 66 -3 75 -20 8 -15 21 -20 54 -20 27 0 48 -6 56 -15 7 -8 23 -15 36 -15 13
0 29 -9 36 -20 8 -12 24 -20 40 -20 17 0 31 -8 38 -20 6 -11 21 -20 34 -20 15
0 52 -30 115 -95 65 -66 101 -95 117 -95 13 0 28 -9 34 -20 6 -12 21 -20 37
-20 32 0 73 -42 73 -75 0 -14 8 -29 20 -35 15 -8 20 -21 20 -52 0 -29 7 -49
21 -64 25 -27 18 -44 -20 -44 -15 0 -30 -3 -33 -6 -5 -5 37 -54 47 -54 2 0 15
11 29 24 33 29 35 84 6 111 -22 19 -27 69 -9 81 6 4 50 -33 103 -85 50 -50 95
-91 99 -91 4 0 7 10 7 23 0 28 -156 187 -184 187 -25 0 -76 51 -76 76 0 11 -9
29 -20 39 -14 13 -20 31 -20 60 0 28 -5 45 -14 48 -8 3 -16 20 -18 38 -5 56
-28 48 -28 -10 0 -40 4 -52 20 -61 24 -13 26 -52 4 -71 -15 -12 -19 -11 -32 9
-8 12 -25 22 -37 22 -31 0 -265 228 -265 259 0 21 -164 193 -175 183z"/>
<path d="M5350 10526 c0 -15 -21 -26 -51 -26 -11 0 -22 -7 -25 -15 -4 -8 -18
-15 -34 -15 -15 0 -35 -9 -45 -20 -14 -16 -31 -20 -79 -20 -50 0 -63 -4 -74
-20 -7 -11 -22 -20 -35 -20 -12 0 -30 -9 -40 -20 -9 -11 -26 -20 -36 -20 -11
0 -32 -11 -47 -25 l-27 -25 24 0 c14 0 32 9 42 20 9 11 28 20 41 20 13 0 26 7
30 15 3 9 18 15 34 15 16 0 37 9 47 20 14 16 31 20 78 20 40 0 66 5 77 15 9 8
44 18 77 21 58 6 62 5 78 -20 19 -28 55 -36 55 -11 0 8 -6 15 -14 15 -8 0 -18
9 -21 20 -3 11 -13 20 -21 20 -9 0 -14 11 -14 35 0 19 -4 35 -10 35 -5 0 -10
-6 -10 -14z"/>
<path d="M4490 10106 c0 -21 6 -24 53 -30 28 -3 66 -6 84 -6 18 0 36 -7 41
-15 6 -11 28 -17 73 -20 35 -2 67 -4 70 -4 4 -1 9 -9 12 -20 3 -14 11 -17 30
-14 19 4 29 -1 42 -21 10 -14 26 -26 37 -26 11 0 65 -46 130 -110 61 -60 115
-107 119 -104 24 14 0 50 -96 143 -70 67 -113 101 -128 101 -13 0 -36 15 -54
35 -28 30 -39 35 -77 35 -35 0 -48 5 -56 20 -9 17 -21 20 -75 20 -54 0 -66 3
-75 20 -9 17 -21 20 -70 20 -56 0 -60 -1 -60 -24z"/>
<path d="M4301 10012 c-1 -36 4 -47 35 -76 40 -38 43 -69 5 -74 -46 -7 -71 6
-71 37 0 16 -6 31 -15 35 -8 3 -15 12 -15 21 0 10 -10 15 -34 15 -33 0 -34 -1
-23 -25 7 -14 17 -25 23 -25 13 0 23 -30 25 -75 1 -17 3 -22 6 -12 4 14 16 17
76 17 71 0 73 -1 111 -40 22 -22 43 -40 47 -40 15 0 17 -30 3 -45 -22 -21 -61
-19 -76 5 -11 17 -24 20 -79 20 -58 0 -69 3 -82 23 l-15 22 -30 -22 c-28 -21
-43 -23 -151 -23 -85 0 -123 4 -133 13 -7 7 -21 16 -30 20 -10 3 -18 13 -18
22 0 9 -9 15 -24 15 -21 0 -24 -6 -30 -56 -7 -62 7 -109 19 -62 9 35 31 42 55
18 23 -23 68 -26 116 -8 24 9 39 9 57 1 20 -9 27 -8 40 8 21 24 33 24 54 -1
20 -23 53 -27 53 -6 0 19 22 26 85 26 63 0 85 -7 85 -26 0 -9 11 -14 30 -14
19 0 34 -7 42 -20 8 -12 24 -20 40 -20 17 0 31 -8 38 -20 6 -12 21 -20 36 -20
18 0 41 -16 78 -55 33 -35 60 -55 74 -55 18 0 0 23 -92 115 -77 77 -114 120
-110 130 9 21 262 22 270 1 3 -8 27 -16 55 -20 30 -4 52 -13 56 -21 3 -9 19
-15 40 -15 26 0 36 -5 40 -20 8 -32 35 -25 31 8 -2 21 -9 28 -30 30 -14 2 -32
10 -38 18 -8 9 -31 14 -61 14 -38 0 -51 4 -59 20 -10 19 -21 20 -166 20 l-155
0 -49 48 c-29 28 -50 58 -50 70 0 21 -43 72 -60 72 -5 0 -12 12 -16 28 -10 47
-12 48 -13 4z"/>
<path d="M4037 9610 c3 -11 9 -20 14 -20 5 0 15 -15 23 -34 8 -19 23 -39 35
-45 11 -6 43 -36 72 -66 38 -40 57 -54 71 -49 13 4 33 -10 71 -48 29 -29 62
-66 73 -82 19 -26 24 -28 50 -19 28 10 28 10 7 17 -13 4 -23 13 -23 21 0 8 -9
17 -20 20 -11 3 -20 12 -20 20 0 7 -9 15 -20 18 -11 3 -20 12 -20 21 0 9 -6
16 -14 16 -8 0 -16 7 -20 15 -3 8 -15 15 -28 15 -24 0 -168 139 -168 164 0 8
-15 17 -35 20 -21 4 -35 13 -35 21 0 8 -4 15 -9 15 -5 0 -7 -9 -4 -20z"/>
<path d="M4750 9484 c0 -16 202 -204 218 -204 11 0 27 -8 36 -19 9 -10 30 -21
47 -25 21 -4 29 -11 29 -27 0 -28 88 -119 115 -119 11 0 28 -9 38 -20 16 -19
47 -26 60 -14 10 10 -49 64 -70 64 -10 0 -39 22 -65 48 -131 132 -131 132
-156 132 -12 0 -40 21 -69 52 -86 94 -137 138 -160 138 -13 0 -23 -3 -23 -6z"/>
<path d="M10210 9241 l-55 -17 -3 -82 -3 -82 -64 0 -65 0 0 -60 0 -60 64 0 64
0 4 -307 c3 -295 4 -310 25 -353 33 -67 70 -85 173 -85 82 0 182 23 195 45 5
8 -14 100 -20 100 -1 0 -22 -7 -45 -15 -23 -8 -64 -15 -90 -15 -37 0 -51 5
-71 26 l-24 26 -3 289 -3 289 116 0 116 0 -3 58 -3 57 -112 3 -113 3 0 99 c0
112 5 107 -80 81z"/>
<path d="M4490 9224 c0 -3 16 -20 35 -38 19 -19 35 -38 35 -44 0 -6 14 -22 31
-34 17 -13 37 -36 45 -51 8 -15 26 -32 40 -37 13 -5 29 -21 34 -34 5 -14 19
-30 32 -37 13 -7 36 -25 52 -40 25 -24 28 -32 22 -64 -10 -52 5 -65 75 -65 32
0 61 4 64 10 3 5 -12 26 -33 47 -22 21 -42 51 -46 66 -4 16 -16 31 -29 36 -12
5 -33 21 -46 35 -14 14 -29 26 -35 26 -6 0 -36 27 -67 60 -31 33 -59 60 -62
60 -4 0 -31 25 -60 55 -29 30 -61 55 -70 55 -9 0 -17 -3 -17 -6z"/>
<path d="M5952 9160 c7 -11 23 -20 35 -20 12 0 27 -9 33 -20 6 -11 21 -20 33
-20 32 0 50 -15 45 -36 -3 -16 -14 -20 -63 -22 -44 -2 -62 1 -70 12 -8 10 -33
16 -81 18 -61 3 -70 1 -79 -17 -7 -12 -23 -21 -43 -23 -18 -2 -32 -9 -32 -17
0 -17 -40 -26 -81 -18 -44 9 -129 93 -129 127 0 19 -7 27 -26 32 -38 10 -50
-10 -20 -30 15 -9 26 -26 26 -38 0 -14 23 -43 61 -79 68 -63 72 -85 17 -92
-26 -3 -23 -4 15 -5 32 -1 47 -6 47 -15 0 -8 9 -22 20 -32 11 -10 20 -27 20
-37 0 -23 87 -111 101 -103 19 12 7 41 -31 75 -26 23 -40 43 -40 60 0 14 -9
31 -20 38 -23 14 -26 37 -7 49 8 4 16 16 20 26 4 11 17 17 41 17 25 0 35 5 39
20 6 23 18 24 244 13 127 -5 143 -8 148 -25 5 -15 17 -18 76 -18 55 0 71 -3
76 -16 9 -24 -23 -44 -69 -44 -25 0 -41 -5 -44 -15 -4 -8 -12 -15 -19 -15 -8
0 -17 -9 -20 -20 -5 -15 -15 -20 -41 -20 -24 0 -34 -4 -34 -16 0 -9 -9 -18
-20 -21 -17 -5 -30 -43 -15 -43 7 0 31 19 53 43 9 9 27 17 40 17 14 0 37 16
59 40 32 34 43 40 78 40 29 0 46 6 59 21 17 21 23 21 171 14 106 -4 155 -3
159 4 5 8 -29 11 -113 11 -127 0 -151 4 -151 26 0 10 -14 14 -50 14 -39 0 -52
4 -60 20 -8 16 -21 20 -60 20 -40 0 -50 4 -55 20 -4 14 -15 20 -36 20 -17 0
-32 6 -35 15 -4 8 -17 15 -30 15 -13 0 -32 9 -41 20 -11 13 -30 20 -51 20 -20
0 -35 6 -38 15 -4 8 -10 15 -15 15 -5 0 -4 -9 3 -20z"/>
<path d="M11362 9070 c-69 -10 -153 -52 -191 -96 -85 -96 -123 -256 -101 -428
16 -127 42 -190 109 -257 75 -74 131 -94 266 -94 106 1 203 25 255 65 l25 19
-23 46 c-12 26 -26 45 -30 43 -95 -50 -108 -53 -202 -53 -79 0 -102 4 -136 22
-76 41 -114 108 -129 231 l-7 52 275 0 274 0 7 68 c8 81 -7 189 -33 241 -41
79 -108 124 -212 141 -70 11 -71 11 -147 0z m180 -137 c40 -22 74 -89 81 -155
l5 -48 -209 0 -209 0 0 23 c0 65 49 150 104 179 59 32 174 33 228 1z"/>
<path d="M12132 9069 c-197 -34 -301 -200 -289 -464 8 -200 66 -314 189 -374
110 -54 275 -52 393 4 81 38 80 36 55 86 -13 24 -24 45 -25 47 -1 1 -26 -10
-56 -25 -40 -20 -74 -28 -130 -31 -173 -10 -270 73 -286 243 l-6 65 271 0 271
0 7 36 c4 20 4 76 2 125 -9 146 -69 239 -178 273 -61 20 -154 26 -218 15z
m155 -124 c71 -30 99 -70 109 -159 l7 -56 -213 0 -212 0 6 38 c10 53 47 123
77 144 63 46 161 60 226 33z"/>
<path d="M10837 9049 c-20 -11 -51 -38 -67 -61 -32 -43 -31 -43 -50 30 -11 42
-11 42 -55 42 l-45 0 0 -425 0 -425 65 0 65 0 0 298 c0 289 1 299 23 342 12
25 38 55 57 68 31 21 44 23 112 20 l77 -5 11 49 c5 27 10 55 10 62 0 32 -145
36 -203 5z"/>
<path d="M5537 8300 c-4 -15 -14 -20 -36 -20 -20 0 -31 -5 -31 -14 0 -16 -21
-26 -55 -26 -13 0 -27 -4 -30 -10 -3 -5 -19 -10 -34 -10 -15 0 -36 -9 -46 -20
-14 -16 -31 -20 -75 -20 -45 0 -61 -4 -76 -21 -11 -13 -27 -19 -41 -16 -21 4
-38 -14 -26 -27 15 -15 84 -5 100 14 19 22 62 27 81 8 18 -18 15 -65 -5 -77
-17 -10 -17 -10 0 -11 27 0 57 37 57 70 0 23 6 33 24 40 13 5 27 14 31 20 4 6
21 10 38 8 29 -3 34 1 52 39 18 38 24 43 55 43 37 1 70 19 70 39 0 20 -47 13
-53 -9z"/>
<path d="M3393 8215 c10 -21 19 -25 60 -25 33 0 49 -5 53 -15 5 -11 22 -15 68
-15 70 0 86 -10 87 -54 l0 -31 16 23 c19 28 39 28 54 1 l11 -21 14 21 c20 28
69 28 86 1 7 -11 23 -20 36 -20 12 0 30 -9 39 -20 23 -27 84 -27 100 -1 11 18
32 19 529 20 285 1 520 3 522 6 3 3 3 7 0 10 -3 3 -271 6 -597 6 -574 0 -591
1 -601 20 -9 16 -22 19 -96 19 -66 0 -86 3 -90 15 -5 11 -22 15 -70 15 -52 0
-68 4 -81 20 -12 14 -30 20 -59 20 -25 0 -47 6 -54 15 -7 8 -18 15 -25 15 -10
0 -11 -5 -2 -25z"/>
<path d="M10130 7215 l0 -564 30 -16 c85 -44 297 -60 401 -29 115 34 199 114
240 231 30 85 37 244 15 353 -39 191 -134 274 -311 273 -81 -1 -141 -20 -196
-64 l-39 -31 0 206 0 206 -70 0 -70 0 0 -565z m409 125 c50 -14 107 -75 128
-134 14 -39 18 -82 18 -176 0 -109 -3 -132 -24 -177 -60 -133 -185 -180 -353
-131 l-38 11 0 229 c0 206 2 233 19 266 50 97 149 141 250 112z"/>
<path d="M13630 7606 l0 -174 -47 15 c-75 23 -224 13 -295 -19 -112 -52 -173
-134 -203 -273 -39 -186 7 -425 98 -501 78 -66 206 -90 311 -60 46 14 70 29
112 71 l53 53 17 -59 17 -59 45 0 45 0 -7 38 c-3 20 -6 286 -6 590 l0 552 -70
0 -70 0 0 -174z m-40 -282 l40 -16 0 -228 0 -228 -28 -53 c-20 -39 -38 -58
-71 -76 -89 -47 -212 -21 -264 55 -42 62 -52 108 -52 237 0 74 5 135 14 160
38 113 114 165 243 165 48 0 93 -6 118 -16z"/>
<path d="M11869 7460 c-118 -21 -178 -85 -187 -199 -10 -145 38 -204 231 -277
50 -19 106 -46 124 -60 63 -48 63 -151 0 -198 -42 -31 -209 -29 -285 2 -30 12
-57 20 -62 17 -13 -8 -41 -98 -33 -106 20 -19 144 -51 217 -56 202 -14 329 69
343 225 3 31 0 77 -7 101 -17 63 -87 130 -175 165 -154 63 -195 86 -212 122
-22 45 -9 99 30 128 39 29 176 29 259 0 l56 -20 15 50 c8 28 12 54 10 58 -2 4
-32 16 -66 27 -74 23 -194 33 -258 21z"/>
<path d="M12590 7459 c-192 -33 -289 -177 -290 -430 0 -162 31 -266 104 -346
100 -111 321 -134 494 -52 34 17 62 33 62 37 -1 16 -47 87 -56 85 -5 -1 -38
-14 -73 -29 -57 -23 -75 -26 -147 -22 -70 4 -90 9 -131 34 -65 40 -104 112
-111 206 l-5 68 270 0 270 0 7 38 c23 139 -17 290 -94 354 -60 50 -194 75
-300 57z m166 -128 c53 -24 80 -60 93 -122 21 -97 40 -89 -200 -89 l-212 0 7
41 c14 88 70 156 146 177 55 16 122 13 166 -7z"/>
<path d="M11125 7446 c-68 -13 -175 -52 -175 -64 0 -15 33 -92 40 -92 4 0 33
9 66 21 86 30 237 37 284 12 52 -27 71 -73 68 -163 l-3 -75 -30 1 c-79 4 -268
-17 -315 -35 -99 -38 -142 -86 -160 -179 -19 -101 24 -200 108 -250 36 -20 62
-27 126 -30 104 -5 179 21 243 84 l43 44 17 -60 16 -60 50 0 49 0 -8 38 c-5
20 -9 179 -9 352 l0 315 -27 46 c-41 70 -107 101 -222 105 -50 2 -122 -3 -161
-10z m285 -531 c0 -96 -38 -154 -125 -191 -144 -61 -293 37 -241 159 28 68
102 95 259 96 l107 1 0 -65z"/>
<path d="M12760 5996 l0 -173 -52 13 c-70 19 -182 18 -249 -2 -172 -49 -259
-192 -259 -424 0 -231 55 -354 183 -411 80 -35 202 -34 279 4 32 16 71 45 88
65 16 20 31 34 34 31 2 -2 11 -26 19 -54 l14 -50 48 -3 c43 -3 47 -1 39 15 -5
10 -10 276 -12 591 l-3 572 -65 0 -64 0 0 -174z m-42 -286 l42 -19 0 -208 c0
-114 -5 -224 -10 -244 -15 -54 -50 -101 -95 -127 -34 -19 -52 -22 -112 -20
-63 3 -76 7 -109 34 -21 17 -50 53 -63 80 -22 43 -26 66 -29 176 -3 101 -1
138 13 181 21 68 66 124 119 148 57 26 186 26 244 -1z"/>
<path d="M13862 5621 c3 -537 3 -550 24 -577 43 -59 68 -69 162 -68 93 1 142
14 142 38 0 11 14 9 71 -11 86 -30 212 -40 291 -24 75 16 146 64 176 119 29
52 39 141 22 201 -17 63 -87 130 -175 165 -154 63 -195 86 -212 122 -22 45 -9
99 30 128 39 29 176 29 259 0 l56 -20 15 50 c8 28 12 54 10 58 -2 4 -34 17
-71 29 -49 15 -95 21 -167 22 -88 1 -107 -2 -157 -25 -77 -36 -109 -84 -116
-177 -10 -145 38 -204 231 -277 50 -19 106 -46 124 -60 63 -48 63 -151 0 -198
-42 -31 -209 -29 -285 2 -30 12 -57 20 -62 17 -5 -3 -14 -22 -20 -43 -17 -52
-30 -63 -30 -24 l0 31 -63 -6 c-78 -7 -103 5 -117 55 -6 23 -10 220 -10 530
l0 492 -65 0 -65 0 2 -549z"/>
<path d="M10455 5850 c-63 -9 -105 -31 -161 -82 l-43 -39 -11 43 c-6 24 -13
49 -15 56 -3 7 -22 12 -50 12 l-45 0 0 -425 0 -425 70 0 70 0 0 304 0 304 33
48 c44 66 86 89 164 89 47 0 68 -5 90 -21 62 -46 73 -110 73 -461 l0 -263 65
0 64 0 3 298 c3 289 4 298 27 345 31 64 82 97 158 104 67 5 113 -14 147 -60
20 -27 21 -43 24 -358 l3 -329 70 0 69 0 0 278 c-1 321 -9 405 -48 482 -37 75
-90 102 -199 103 -107 1 -173 -22 -235 -84 l-47 -47 -23 41 c-38 70 -138 104
-253 87z"/>
<path d="M11674 5850 c-62 -9 -129 -38 -172 -74 -94 -81 -145 -264 -122 -447
15 -127 43 -193 110 -260 73 -73 130 -94 260 -94 83 1 103 4 158 29 137 63
202 193 202 403 0 171 -35 279 -115 357 -73 71 -197 105 -321 86z m172 -136
c51 -26 99 -99 114 -171 7 -31 10 -106 8 -167 -3 -98 -7 -118 -32 -169 -38
-79 -86 -110 -176 -115 -53 -3 -75 0 -107 17 -82 41 -126 126 -139 261 -11
129 33 288 92 327 71 46 168 53 240 17z"/>
<path d="M13312 5849 c-208 -35 -320 -242 -284 -527 30 -236 155 -352 375
-352 96 0 277 59 277 91 0 17 -41 91 -48 87 -71 -38 -116 -52 -179 -56 -102
-7 -157 11 -213 67 -49 49 -68 96 -77 187 l-6 54 274 2 274 3 3 104 c3 126
-13 190 -64 249 -45 53 -93 78 -175 92 -72 11 -83 11 -157 -1z m191 -138 c43
-26 69 -79 75 -148 l4 -53 -211 0 -210 0 6 33 c25 135 108 202 240 193 40 -2
74 -11 96 -25z"/>
<path d="M10179 4565 c-53 -29 -62 -120 -16 -150 66 -42 157 -4 157 65 0 42
-15 67 -50 85 -36 18 -57 18 -91 0z"/>
<path d="M11850 4570 c-47 -5 -95 -12 -107 -15 l-23 -5 0 -585 0 -585 70 0 70
0 0 271 c0 223 2 270 13 266 8 -3 40 -8 73 -12 32 -4 66 -11 74 -15 8 -5 87
-121 175 -259 l160 -251 78 0 c42 0 77 3 77 6 0 4 -65 111 -145 238 -103 163
-155 238 -180 255 -19 13 -35 26 -35 30 0 3 22 14 49 24 108 38 196 153 208
272 18 174 -63 303 -220 350 -64 20 -224 27 -337 15z m296 -138 c54 -27 101
-83 110 -127 3 -20 4 -62 2 -94 -6 -82 -39 -130 -115 -167 -51 -26 -71 -29
-170 -33 l-113 -3 0 220 0 221 38 4 c85 11 207 0 248 -21z"/>
<path d="M10827 4240 c-63 -11 -127 -43 -171 -86 -39 -38 -37 -38 -56 34 -11
42 -11 42 -55 42 l-45 0 0 -425 0 -425 65 0 65 0 0 290 c0 269 1 294 20 329
54 107 192 159 296 112 31 -14 47 -30 65 -67 23 -48 24 -55 27 -356 l3 -308
70 0 69 0 0 263 c0 282 -11 408 -39 472 -22 48 -64 89 -111 108 -46 19 -143
27 -203 17z"/>
<path d="M10160 3805 l0 -425 65 0 65 0 0 425 0 425 -65 0 -65 0 0 -425z"/>
</g>
</svg>
